<svg width="36" height="36" viewBox="0 0 36 36" fill="none" xmlns="http://www.w3.org/2000/svg">
<path d="M0 4C0 1.79086 1.79086 0 4 0H32C34.2091 0 36 1.79086 36 4V32C36 34.2091 34.2091 36 32 36H4C1.79086 36 0 34.2091 0 32V4Z" fill="black" fill-opacity="0.1"/>
<path fill-rule="evenodd" clip-rule="evenodd" d="M4.74783 31.2522C4.90657 31.4109 5.12183 31.5 5.34628 31.5C5.57073 31.5 5.78599 31.4109 5.94473 31.2522L12.8789 24.318V29.004C12.8789 29.2285 12.9681 29.4438 13.1268 29.6025C13.2856 29.7613 13.5009 29.8504 13.7254 29.8504C13.9499 29.8504 14.1652 29.7613 14.3239 29.6025C14.4827 29.4438 14.5718 29.2285 14.5718 29.004V22.2746C14.5718 22.0501 14.4827 21.8348 14.3239 21.6761C14.1652 21.5173 13.9499 21.4282 13.7254 21.4282H6.99603C6.77153 21.4282 6.55623 21.5173 6.39749 21.6761C6.23875 21.8348 6.14957 22.0501 6.14957 22.2746C6.14957 22.4991 6.23875 22.7144 6.39749 22.8732C6.55623 23.0319 6.77153 23.1211 6.99603 23.1211H11.682L4.74783 30.0553C4.58915 30.214 4.5 30.4293 4.5 30.6537C4.5 30.8782 4.58915 31.0934 4.74783 31.2522V31.2522ZM31.2522 4.74783C31.0934 4.58915 30.8782 4.5 30.6537 4.5C30.4293 4.5 30.214 4.58915 30.0553 4.74783L23.1211 11.682V6.99603C23.1211 6.77153 23.0319 6.55623 22.8732 6.39749C22.7144 6.23875 22.4991 6.14957 22.2746 6.14957C22.0501 6.14957 21.8348 6.23875 21.6761 6.39749C21.5173 6.55623 21.4282 6.77153 21.4282 6.99603V13.7254C21.4282 13.9499 21.5173 14.1652 21.6761 14.3239C21.8348 14.4827 22.0501 14.5718 22.2746 14.5718H29.004C29.2285 14.5718 29.4438 14.4827 29.6025 14.3239C29.7613 14.1652 29.8504 13.9499 29.8504 13.7254C29.8504 13.5009 29.7613 13.2856 29.6025 13.1268C29.4438 12.9681 29.2285 12.8789 29.004 12.8789H24.318L31.2522 5.94473C31.4109 5.78599 31.5 5.57073 31.5 5.34628C31.5 5.12183 31.4109 4.90657 31.2522 4.74783V4.74783Z" fill="white"/>
</svg>