<svg width="36" height="36" viewBox="0 0 36 36" fill="none" xmlns="http://www.w3.org/2000/svg">
<path d="M0 4C0 1.79086 1.79086 0 4 0H32C34.2091 0 36 1.79086 36 4V32C36 34.2091 34.2091 36 32 36H4C1.79086 36 0 34.2091 0 32V4Z" fill="black" fill-opacity="0.1"/>
<path fill-rule="evenodd" clip-rule="evenodd" d="M14.3233 21.6767C14.1645 21.5181 13.9493 21.4289 13.7249 21.4289C13.5004 21.4289 13.2852 21.5181 13.1265 21.6767L6.19279 28.6104V23.9248C6.19279 23.7003 6.10362 23.485 5.94489 23.3263C5.78616 23.1675 5.57087 23.0784 5.34639 23.0784C5.12192 23.0784 4.90663 23.1675 4.7479 23.3263C4.58917 23.485 4.5 23.7003 4.5 23.9248V30.6536C4.5 30.8781 4.58917 31.0934 4.7479 31.2521C4.90663 31.4108 5.12192 31.5 5.34639 31.5H12.0752C12.2997 31.5 12.515 31.4108 12.6737 31.2521C12.8325 31.0934 12.9216 30.8781 12.9216 30.6536C12.9216 30.4291 12.8325 30.2138 12.6737 30.0551C12.515 29.8964 12.2997 29.8072 12.0752 29.8072H7.38959L14.3233 22.8735C14.4819 22.7148 14.5711 22.4996 14.5711 22.2751C14.5711 22.0507 14.4819 21.8355 14.3233 21.6767V21.6767ZM21.6767 14.3233C21.8355 14.4819 22.0507 14.5711 22.2751 14.5711C22.4996 14.5711 22.7148 14.4819 22.8735 14.3233L29.8072 7.38959V12.0752C29.8072 12.2997 29.8964 12.515 30.0551 12.6737C30.2138 12.8325 30.4291 12.9216 30.6536 12.9216C30.8781 12.9216 31.0934 12.8325 31.2521 12.6737C31.4108 12.515 31.5 12.2997 31.5 12.0752V5.34639C31.5 5.12192 31.4108 4.90663 31.2521 4.7479C31.0934 4.58917 30.8781 4.5 30.6536 4.5H23.9248C23.7003 4.5 23.485 4.58917 23.3263 4.7479C23.1675 4.90663 23.0784 5.12192 23.0784 5.34639C23.0784 5.57087 23.1675 5.78616 23.3263 5.94489C23.485 6.10362 23.7003 6.19279 23.9248 6.19279H28.6104L21.6767 13.1265C21.5181 13.2852 21.4289 13.5004 21.4289 13.7249C21.4289 13.9493 21.5181 14.1645 21.6767 14.3233V14.3233Z" fill="white"/>
</svg>